<?xml version="1.0" encoding="utf-8"?>
<!-- Generator: Adobe Illustrator 28.3.0, SVG Export Plug-In . SVG Version: 6.00 Build 0)  -->
<svg version="1.1" xmlns="http://www.w3.org/2000/svg" xmlns:xlink="http://www.w3.org/1999/xlink" x="0px" y="0px"
	 viewBox="0 0 120 47" style="enable-background:new 0 0 120 47;" xml:space="preserve">
<style type="text/css">
	.st0{clip-path:url(#SVGID_00000051356355238454040420000011654192727547593110_);}
	.st1{fill:#231F20;}
</style>
<g id="Layer_2">
</g>
<g id="Layer_1">
	<g>
		<defs>
			<rect id="SVGID_1_" y="0.1" width="120" height="46.8"/>
		</defs>
		<clipPath id="SVGID_00000125595971473159273240000011573292213701849751_">
			<use xlink:href="#SVGID_1_"  style="overflow:visible;"/>
		</clipPath>
		<g style="clip-path:url(#SVGID_00000125595971473159273240000011573292213701849751_);">
			<path d="M91.3,37.1c-2.4-1.8-5.4-1.6-7.5,1.2c-2.1,2.8-1.5,5.9,0.7,7.6c2.7,2,5.2,0.8,6.4-0.6c0.2-0.3,0.1-0.6-0.1-0.8
				c-0.2-0.2-0.4-0.2-0.7-0.1c-0.7,0.4-2.2,1-3.6-0.1c-1.2-1-1.1-2.3-0.6-3.2l0.7,0.3c3.5,1.7,5.2,1.7,6.1,0.4
				C93.8,40.3,93.2,38.5,91.3,37.1z M90.9,39.9c-0.6,0.8-1.7,1.3-3.9,0.3L86.5,40c1.3-2,3.2-2.9,4.2-2
				C91.3,38.5,91.3,39.2,90.9,39.9L90.9,39.9z"/>
			<path d="M76.8,36c3.8,0.7,5.4,0.2,6-1.2c0.7-1.7-0.4-3.2-2.6-4.1c-2.7-1.1-5.6-0.1-6.9,3.1c-1.3,3.3,0.1,6.1,2.7,7.1
				c3.1,1.2,5.1-0.6,5.9-2.3c0.2-0.3,0-0.7-0.3-0.8c-0.3-0.1-0.5-0.1-0.7,0.2c-0.5,0.6-1.9,1.5-3.5,0.8c-1.4-0.6-1.6-2-1.4-3
				L76.8,36L76.8,36z M79.8,31.7c0.8,0.3,1,1.1,0.7,1.8c-0.4,1-1.3,1.7-3.7,1.3l-0.5-0.1C77,32.4,78.6,31.1,79.8,31.7z"/>
			<path d="M69.6,36.3l1.1-6.7l2.7,0.4c0.4,0.1,0.7-0.1,0.8-0.6c0.1-0.5-0.1-0.7-0.5-0.8l-2.9-0.5c-0.7-1.4-0.8-2.3-0.7-3.1
				c0.2-1.1,0.9-1.6,1.6-1.5c0.6,0.1,0.8,0.5,0.7,1.1c-0.1,0.3-0.2,0.7-0.2,1c-0.2,0.8,0.4,1.4,1.2,1.6c0.9,0.2,1.6-0.3,1.7-1.3
				c0.2-1.8-1.3-3-3.4-3.3c-1.8-0.3-3.9,0.1-4.2,2.4c-0.1,0.8,0,1.8,0.4,2.7l-1.7-0.3c-0.4-0.1-0.6,0.2-0.7,0.6
				c-0.1,0.5,0.1,0.8,0.5,0.8l1.6,0.3l-1.1,6.7c-0.2,1.1-1.3,1.2-1.4,1.9c0,0.2,0.1,0.5,0.4,0.5c1.6,0.2,3.1,0.4,4.7,0.7
				c0.4,0.1,0.7,0,0.7-0.3C70.9,37.7,69.4,37.4,69.6,36.3L69.6,36.3z"/>
			<path d="M61.1,24.7c0.1,0.8,0.7,1.3,1.5,1.3c0.9-0.1,1.4-0.7,1.3-1.7c-0.1-1.8-1.9-2.5-4-2.4c-1.8,0.1-3.7,0.9-3.6,3.3
				c0,0.8,0.4,1.7,1,2.5l-1.7,0.1c-0.4,0-0.6,0.3-0.6,0.8c0,0.5,0.3,0.7,0.7,0.7l1.7-0.1l0.4,6.8c0.1,1.1-1,1.5-1,2.1
				c0,0.3,0.2,0.4,0.5,0.4c1.6-0.2,3.2-0.4,4.7-0.4c0.4,0,0.7-0.2,0.6-0.5c-0.1-0.7-1.6-0.7-1.7-1.9l-0.4-6.8l2.7-0.2
				c0.4,0,0.7-0.3,0.6-0.8c0-0.4-0.2-0.7-0.7-0.7l-3,0.2c-1-1.2-1.2-2.1-1.3-2.9c-0.1-1,0.5-1.8,1.2-1.8c0.7,0,0.8,0.4,0.9,0.9
				C61.2,23.9,61.1,24.3,61.1,24.7z"/>
			<path d="M47.8,29.6c-3,1-4.6,3.8-3.6,7c1,3.2,4,4.5,7,3.5c3-1,4.6-3.8,3.6-7C53.8,29.8,50.8,28.6,47.8,29.6z M51.2,38.9
				c-1.7,0.5-3.1-2-3.9-4.3c-0.7-2.1-0.6-3.6,0.6-4c1.7-0.6,3.2,2,3.9,4.2C52.5,37.1,52.3,38.6,51.2,38.9z"/>
			<path d="M119.5,36.9c-1.2-1.8-3-1.3-3.2-1.7c-0.1-0.1,0-0.3,0.2-0.4l0.7-0.5c0.4-0.2,0.3-0.5,0-0.8l-2.3-2
				c-0.5-0.4-0.6-0.4-0.8-0.3c-0.5,0.4,0,1.3-0.9,1.9l-4.3,3c-0.9,0.6-1.7,0.2-2.2,0.6c-0.2,0.1-0.2,0.4-0.1,0.6
				c0.8,1,1.6,2.1,2.5,3.2c0.1,0.2,0.3,0.2,0.5,0.1c0.5-0.4,0.2-1.2,1.1-1.8l3.5-2.5c0.8-0.6,2.2-0.7,2.9,0.3
				c0.4,0.5,0.7,1.4-1.5,3.3l-2.9,2.5c-0.6,0.5-1.3-0.1-1.7,0.2c-0.2,0.1-0.2,0.4-0.1,0.5c0.8,1.2,1.4,2.3,2.2,3.5
				c0.1,0.2,0.4,0.3,0.6,0.1c0.5-0.3,0.4-1.2,1.1-1.8l3.2-2.8C120.6,39.7,120.2,38,119.5,36.9L119.5,36.9z"/>
			<path class="st1" d="M114.9,25.4c0.8-0.6,0.9-1.9,0.1-2.7c-0.8-0.8-2.2-1-3-0.3c-0.9,0.6-0.9,1.9-0.1,2.8
				C112.7,25.9,114.1,26,114.9,25.4L114.9,25.4z"/>
			<path d="M112,28c0.3-0.3,0.3-0.5-0.1-0.8l-2.6-1.6c-0.6-0.4-0.7-0.3-0.9-0.1c-0.5,0.5,0.2,1.3-0.5,2l-3.8,3.7
				c-0.8,0.8-1.7,0.1-2.2,0.6c-0.2,0.2-0.2,0.4,0,0.6c1,1.1,2,2.1,3.1,3.3c0.2,0.2,0.4,0.2,0.6,0c0.5-0.5-0.1-1.4,0.6-2.1L112,28
				L112,28z"/>
			<path d="M101.6,30.2c-0.5-0.3-0.6-0.6-0.2-1.2l2.5-3.9c1.5-2.3,1.1-4.4-1.3-6.2c-1.5-1.2-4.4-1.5-5.2-0.3
				c-0.3,0.4-0.1,0.9,0.2,1.2c0.2,0.2,0.5,0.2,0.8,0.1c0.5-0.3,1.7-0.7,2.9,0.1c1.2,1,0.9,1.9,0.3,2.9l-0.4,0.6
				c-0.1,0.2-0.2,0.2-0.3,0.1c-0.2-0.1-0.7-1.1-1.4-1.6c-1.6-1.3-3.9-1.8-5.3,0c-1.3,1.7-0.8,3.6,1,5c1.5,1.2,2.7,1,3.4,0.7
				c-0.2,1,0.2,2,1.4,3c0.8,0.6,1.4,0.8,1.8,0.3C102,30.8,101.8,30.5,101.6,30.2L101.6,30.2z M99.4,26.2c-0.7,1-1.6,1-2.2,0.5
				c-0.8-0.6-1.1-1.6-0.1-3c0.8-1,1.7-0.8,2.3-0.4C100.1,23.9,100.3,24.9,99.4,26.2L99.4,26.2z"/>
			<path d="M93.8,10.7l-5,9.5c-0.5,1-1.5,0.6-1.9,1.2c-0.1,0.2-0.1,0.4,0.2,0.6c1.3,0.6,2.6,1.3,4,2.1c0.2,0.1,0.5,0.1,0.6-0.1
				c0.3-0.6-0.6-1.3-0.1-2.2l6.3-11.8c0.2-0.4,0.1-0.5-0.4-0.7l-2.9-0.8c-0.6-0.2-0.8-0.1-0.9,0.2C93.4,9.2,94.4,9.7,93.8,10.7
				L93.8,10.7z"/>
			<path d="M78.5,18.1c-0.1,0.2,0.1,0.5,0.3,0.5c1.6,0.5,3.1,1.1,4.7,1.7c0.4,0.1,0.7,0.1,0.8-0.2c0.3-0.6-1.2-1.4-0.8-2.4l1.4-3.6
				l1,0.4c2.2,0.8,4-0.2,4.5-1.5c0.4-0.9,0.1-1.6-0.8-2c-0.8-0.3-1.3-0.1-1.7,0.5c-0.5,0.8-1.3,2.1-2.2,1.8l-0.4-0.1l1.1-3
				c0.2-0.4,0-0.5-0.5-0.6l-3-0.4C82.2,9.1,82,9.3,82,9.5c-0.2,0.6,0.8,1.1,0.4,2.1l-2.1,5C79.8,17.6,78.7,17.5,78.5,18.1L78.5,18.1
				z"/>
			<path d="M73.2,17.5c3.3,0.6,4.8-1.7,5.4-3.4c0.1-0.4-0.1-0.6-0.4-0.7c-0.3-0.1-0.5,0-0.6,0.3c-0.4,0.7-1.5,1.8-3.3,1.5
				c-1.5-0.3-2-1.6-1.9-2.6h0.8c3.9,0,5.4-0.8,5.7-2.4c0.3-1.8-1-3.1-3.3-3.5c-2.9-0.5-5.6,1-6.2,4.4C68.6,14.5,70.5,17,73.2,17.5
				L73.2,17.5z M75.2,7.7c0.8,0.1,1.2,0.8,1,1.6c-0.2,1-1,1.9-3.4,2l-0.5,0C72.6,9,73.9,7.4,75.2,7.7L75.2,7.7z"/>
			<path d="M56.2,3.4L57,15.9c0,0.4,0.4,0.7,0.8,0.7c0.3,0,0.5-0.1,0.6-0.4c0.2-0.5,0.5-1.3,0.9-1.8c0.5,1.1,1.8,2.2,3.4,2.1
				c2.1-0.1,4.9-1.8,4.7-5.9c-0.2-4-2.8-5.3-4.8-5.2c-1,0-1.7,0.6-2.2,1C60.1,6.7,60,7,59.8,7c-0.1,0-0.2-0.1-0.2-0.2l-0.4-6.3
				c0-0.5-0.5-0.5-0.7-0.4L55.7,1C55.2,1.2,55,1.4,55,1.7C55,2.3,56.1,2.3,56.2,3.4L56.2,3.4z M61.4,7.3c1.9-0.1,2.6,2.5,2.8,4.7
				c0.1,2.2-0.5,3-1.6,3.1c-1.8,0.1-2.6-2.5-2.7-4.6C59.7,8.3,60.4,7.3,61.4,7.3z"/>
			<path d="M48.4,18c0.2-0.1,0.4-0.3,0.3-0.5c-0.2-0.6-1.3-0.5-1.6-1.6L46,12.2c-0.4-1.4-0.1-2.7,1-3.1c0.7-0.2,1.6-0.2,2.7,2.5
				l1.4,3.7c0.3,0.8-0.5,1.3-0.4,1.8c0.1,0.2,0.2,0.3,0.5,0.3c1.4-0.3,2.8-0.5,4.3-0.7c0.2,0,0.4-0.3,0.3-0.5
				c-0.2-0.6-1.1-0.6-1.5-1.5l-2-4.8c-1.3-3.2-3-3.4-4.4-3c-2.3,0.7-2.4,2.7-2.9,2.9c-0.2,0.1-0.3,0-0.4-0.2c-0.9-0.9-2-1.1-3.2-0.7
				c-2.2,0.7-2.3,2.6-2.8,2.8c-0.1,0-0.3,0-0.3-0.3l-0.3-1c-0.1-0.4-0.3-0.5-0.7-0.2l-2.6,1.6C34,12,34,12.2,34.1,12.4
				c0.2,0.6,1.2,0.4,1.5,1.4l1.7,5.7c0.3,1.1-0.2,1.6-0.1,2.2c0.1,0.2,0.3,0.3,0.5,0.2c1.3-0.6,2.6-1.2,3.9-1.7
				c0.3-0.1,0.4-0.3,0.3-0.5c-0.2-0.6-1.3-0.5-1.6-1.6l-1.3-3.9c-0.5-1.4,0.4-3,1.3-3.3c1-0.3,1.8,0,2.3,1.7l1.3,4.2
				c0.3,1.1-0.6,1.6-0.5,2.2c0.1,0.2,0.3,0.3,0.5,0.2C45.6,18.9,47,18.4,48.4,18L48.4,18z"/>
			<path d="M32.2,23.7c0.9,0.5,1.9,0.5,3.3-0.4c0.8-0.5,1.2-1.1,0.9-1.6c-0.2-0.3-0.6-0.3-0.8-0.1C35,22,34.8,22,34.4,21.4l-2.8-3.7
				c-1.7-2.2-3.7-2.5-6.3-0.9c-1.6,1.1-2.8,3.7-2,4.9c0.3,0.4,0.8,0.4,1.1,0.2c0.2-0.1,0.4-0.4,0.3-0.7c-0.1-0.6-0.1-1.9,1.1-2.7
				c1.3-0.8,2-0.2,2.8,0.7l0.5,0.6c0.2,0.2,0.2,0.3,0,0.4c-0.1,0.1-1.2,0.3-1.9,0.7c-1.7,1.1-3,3.1-1.7,5c1.1,1.8,3.1,2,5,0.7
				C32,25.7,32.2,24.5,32.2,23.7L32.2,23.7z M28,23.8c-0.7-1.1-0.2-1.9,0.4-2.3c0.8-0.5,1.7-0.4,2.6,1c0.7,1,0.4,1.8-0.2,2.3
				C30,25.2,29,25.2,28,23.8L28,23.8z"/>
			<path d="M24.6,28.3L21,25.5c-3-2.3-4.6-1.6-5.5-0.7c-1.5,1.6-0.7,3.1-1.1,3.5c-0.1,0.1-0.3,0.1-0.4-0.1l-4.4-4.4
				c-0.3-0.3-0.5-0.3-0.8,0.1l-1.5,2.6C7,27.2,7,27.3,7.2,27.5c0.5,0.5,1.2-0.3,2,0.5l7.5,7.5c0.8,0.8,0.4,1.8,0.9,2.3
				c0.2,0.2,0.4,0.2,0.6,0c0.9-1.1,1.8-2.2,2.8-3.2c0.1-0.1,0.1-0.4,0-0.5c-0.5-0.5-1.2,0-2-0.8l-3.1-3c-0.7-0.7-1.1-2-0.3-2.9
				c0.5-0.5,1.2-0.9,3.4,0.9l3,2.4c0.6,0.5,0.2,1.3,0.6,1.7c0.2,0.2,0.4,0.2,0.5,0c1.1-1.1,2.2-2,3.3-3c0.2-0.1,0.2-0.4,0-0.6
				C26.1,28.4,25.3,28.9,24.6,28.3z"/>
			<path d="M13.4,35.8c-0.4-0.3-0.7-0.3-0.9,0c-0.2,0.3-0.1,0.5,0.1,0.8c0.8,1.2,1,2.7,0.3,3.9c-1.6,2.5-4.5,3-8.2,0.6
				c-3-1.9-3.5-3.7-2.5-5.2c0.8-1.3,2.2-1.6,4-0.5c0.8,0.5,1.8,0.3,2.3-0.4c0.6-0.9,0.2-2.2-1-3c-1.8-1.2-4.3-0.1-6.1,2.8
				c-2.3,3.6-1.4,8.1,2.7,10.7c3.9,2.5,8.1,1.8,10.5-2C17.1,39.3,14.5,36.5,13.4,35.8L13.4,35.8z"/>
			<path d="M42.1,37.5c-0.2,0.2-0.3,0.4-0.2,0.8c0.4,1.4,0,2.8-1.1,3.7c-2.4,1.8-5.3,1.2-7.9-2.4c-2.1-2.9-2.1-4.7-0.6-5.8
				c1.2-0.9,2.6-0.7,3.9,1c0.6,0.8,1.6,0.9,2.3,0.4c0.9-0.7,0.9-2,0.1-3.2c-1.3-1.8-4-1.6-6.7,0.5c-3.4,2.6-4.1,7.1-1.1,11
				c2.8,3.7,7,4.5,10.5,1.9c3.9-3,2.5-6.5,1.7-7.6C42.7,37.4,42.4,37.2,42.1,37.5L42.1,37.5z"/>
		</g>
	</g>
</g>
</svg>
